<?xml version="1.0" encoding="utf-8" standalone="no"?>
<!DOCTYPE svg PUBLIC "-//W3C//DTD SVG 1.1//EN"
  "http://www.w3.org/Graphics/SVG/1.1/DTD/svg11.dtd">
<!-- Created with matplotlib (https://matplotlib.org/) -->
<svg height="252pt" version="1.1" viewBox="0 0 396 252" width="396pt" xmlns="http://www.w3.org/2000/svg" xmlns:xlink="http://www.w3.org/1999/xlink">
 <metadata>
  <rdf:RDF xmlns:cc="http://creativecommons.org/ns#" xmlns:dc="http://purl.org/dc/elements/1.1/" xmlns:rdf="http://www.w3.org/1999/02/22-rdf-syntax-ns#">
   <cc:Work>
    <dc:type rdf:resource="http://purl.org/dc/dcmitype/StillImage"/>
    <dc:date>2026-01-12T16:41:09.792140</dc:date>
    <dc:format>image/svg+xml</dc:format>
    <dc:creator>
     <cc:Agent>
      <dc:title>Matplotlib v3.3.3, https://matplotlib.org/</dc:title>
     </cc:Agent>
    </dc:creator>
   </cc:Work>
  </rdf:RDF>
 </metadata>
 <defs>
  <style type="text/css">*{stroke-linecap:butt;stroke-linejoin:round;}</style>
 </defs>
 <g id="figure_1">
  <g id="patch_1">
   <path d="M 0 252 
L 396 252 
L 396 0 
L 0 0 
z
" style="fill:#ffffff;"/>
  </g>
  <g id="axes_1">
   <g id="patch_2">
    <path d="M 57.395 210.04 
L 385.2 210.04 
L 385.2 10.8 
L 57.395 10.8 
z
" style="fill:#ffffff;"/>
   </g>
   <g id="matplotlib.axis_1">
    <g id="xtick_1">
     <g id="line2d_1">
      <path clip-path="url(#pdf49eaf6f2)" d="M 72.295227 210.04 
L 72.295227 10.8 
" style="fill:none;stroke:#b0b0b0;stroke-linecap:square;stroke-width:0.8;"/>
     </g>
     <g id="line2d_2">
      <defs>
       <path d="M 0 0 
L 0 3.5 
" id="m8eaf4bde5e" style="stroke:#000000;stroke-width:0.8;"/>
      </defs>
      <g>
       <use style="stroke:#000000;stroke-width:0.8;" x="72.295227" xlink:href="#m8eaf4bde5e" y="210.04"/>
      </g>
     </g>
     <g id="text_1">
      <!-- 0 -->
      <g transform="translate(69.113977 224.638438)scale(0.1 -0.1)">
       <defs>
        <path d="M 31.78125 66.40625 
Q 24.171875 66.40625 20.328125 58.90625 
Q 16.5 51.421875 16.5 36.375 
Q 16.5 21.390625 20.328125 13.890625 
Q 24.171875 6.390625 31.78125 6.390625 
Q 39.453125 6.390625 43.28125 13.890625 
Q 47.125 21.390625 47.125 36.375 
Q 47.125 51.421875 43.28125 58.90625 
Q 39.453125 66.40625 31.78125 66.40625 
z
M 31.78125 74.21875 
Q 44.046875 74.21875 50.515625 64.515625 
Q 56.984375 54.828125 56.984375 36.375 
Q 56.984375 17.96875 50.515625 8.265625 
Q 44.046875 -1.421875 31.78125 -1.421875 
Q 19.53125 -1.421875 13.0625 8.265625 
Q 6.59375 17.96875 6.59375 36.375 
Q 6.59375 54.828125 13.0625 64.515625 
Q 19.53125 74.21875 31.78125 74.21875 
z
" id="DejaVuSans-48"/>
       </defs>
       <use xlink:href="#DejaVuSans-48"/>
      </g>
     </g>
    </g>
    <g id="xtick_2">
     <g id="line2d_3">
      <path clip-path="url(#pdf49eaf6f2)" d="M 117.584672 210.04 
L 117.584672 10.8 
" style="fill:none;stroke:#b0b0b0;stroke-linecap:square;stroke-width:0.8;"/>
     </g>
     <g id="line2d_4">
      <g>
       <use style="stroke:#000000;stroke-width:0.8;" x="117.584672" xlink:href="#m8eaf4bde5e" y="210.04"/>
      </g>
     </g>
     <g id="text_2">
      <!-- 50 -->
      <g transform="translate(111.222172 224.638438)scale(0.1 -0.1)">
       <defs>
        <path d="M 10.796875 72.90625 
L 49.515625 72.90625 
L 49.515625 64.59375 
L 19.828125 64.59375 
L 19.828125 46.734375 
Q 21.96875 47.46875 24.109375 47.828125 
Q 26.265625 48.1875 28.421875 48.1875 
Q 40.625 48.1875 47.75 41.5 
Q 54.890625 34.8125 54.890625 23.390625 
Q 54.890625 11.625 47.5625 5.09375 
Q 40.234375 -1.421875 26.90625 -1.421875 
Q 22.3125 -1.421875 17.546875 -0.640625 
Q 12.796875 0.140625 7.71875 1.703125 
L 7.71875 11.625 
Q 12.109375 9.234375 16.796875 8.0625 
Q 21.484375 6.890625 26.703125 6.890625 
Q 35.15625 6.890625 40.078125 11.328125 
Q 45.015625 15.765625 45.015625 23.390625 
Q 45.015625 31 40.078125 35.4375 
Q 35.15625 39.890625 26.703125 39.890625 
Q 22.75 39.890625 18.8125 39.015625 
Q 14.890625 38.140625 10.796875 36.28125 
z
" id="DejaVuSans-53"/>
       </defs>
       <use xlink:href="#DejaVuSans-53"/>
       <use x="63.623047" xlink:href="#DejaVuSans-48"/>
      </g>
     </g>
    </g>
    <g id="xtick_3">
     <g id="line2d_5">
      <path clip-path="url(#pdf49eaf6f2)" d="M 162.874116 210.04 
L 162.874116 10.8 
" style="fill:none;stroke:#b0b0b0;stroke-linecap:square;stroke-width:0.8;"/>
     </g>
     <g id="line2d_6">
      <g>
       <use style="stroke:#000000;stroke-width:0.8;" x="162.874116" xlink:href="#m8eaf4bde5e" y="210.04"/>
      </g>
     </g>
     <g id="text_3">
      <!-- 100 -->
      <g transform="translate(153.330366 224.638438)scale(0.1 -0.1)">
       <defs>
        <path d="M 12.40625 8.296875 
L 28.515625 8.296875 
L 28.515625 63.921875 
L 10.984375 60.40625 
L 10.984375 69.390625 
L 28.421875 72.90625 
L 38.28125 72.90625 
L 38.28125 8.296875 
L 54.390625 8.296875 
L 54.390625 0 
L 12.40625 0 
z
" id="DejaVuSans-49"/>
       </defs>
       <use xlink:href="#DejaVuSans-49"/>
       <use x="63.623047" xlink:href="#DejaVuSans-48"/>
       <use x="127.246094" xlink:href="#DejaVuSans-48"/>
      </g>
     </g>
    </g>
    <g id="xtick_4">
     <g id="line2d_7">
      <path clip-path="url(#pdf49eaf6f2)" d="M 208.163561 210.04 
L 208.163561 10.8 
" style="fill:none;stroke:#b0b0b0;stroke-linecap:square;stroke-width:0.8;"/>
     </g>
     <g id="line2d_8">
      <g>
       <use style="stroke:#000000;stroke-width:0.8;" x="208.163561" xlink:href="#m8eaf4bde5e" y="210.04"/>
      </g>
     </g>
     <g id="text_4">
      <!-- 150 -->
      <g transform="translate(198.619811 224.638438)scale(0.1 -0.1)">
       <use xlink:href="#DejaVuSans-49"/>
       <use x="63.623047" xlink:href="#DejaVuSans-53"/>
       <use x="127.246094" xlink:href="#DejaVuSans-48"/>
      </g>
     </g>
    </g>
    <g id="xtick_5">
     <g id="line2d_9">
      <path clip-path="url(#pdf49eaf6f2)" d="M 253.453006 210.04 
L 253.453006 10.8 
" style="fill:none;stroke:#b0b0b0;stroke-linecap:square;stroke-width:0.8;"/>
     </g>
     <g id="line2d_10">
      <g>
       <use style="stroke:#000000;stroke-width:0.8;" x="253.453006" xlink:href="#m8eaf4bde5e" y="210.04"/>
      </g>
     </g>
     <g id="text_5">
      <!-- 200 -->
      <g transform="translate(243.909256 224.638438)scale(0.1 -0.1)">
       <defs>
        <path d="M 19.1875 8.296875 
L 53.609375 8.296875 
L 53.609375 0 
L 7.328125 0 
L 7.328125 8.296875 
Q 12.9375 14.109375 22.625 23.890625 
Q 32.328125 33.6875 34.8125 36.53125 
Q 39.546875 41.84375 41.421875 45.53125 
Q 43.3125 49.21875 43.3125 52.78125 
Q 43.3125 58.59375 39.234375 62.25 
Q 35.15625 65.921875 28.609375 65.921875 
Q 23.96875 65.921875 18.8125 64.3125 
Q 13.671875 62.703125 7.8125 59.421875 
L 7.8125 69.390625 
Q 13.765625 71.78125 18.9375 73 
Q 24.125 74.21875 28.421875 74.21875 
Q 39.75 74.21875 46.484375 68.546875 
Q 53.21875 62.890625 53.21875 53.421875 
Q 53.21875 48.921875 51.53125 44.890625 
Q 49.859375 40.875 45.40625 35.40625 
Q 44.1875 33.984375 37.640625 27.21875 
Q 31.109375 20.453125 19.1875 8.296875 
z
" id="DejaVuSans-50"/>
       </defs>
       <use xlink:href="#DejaVuSans-50"/>
       <use x="63.623047" xlink:href="#DejaVuSans-48"/>
       <use x="127.246094" xlink:href="#DejaVuSans-48"/>
      </g>
     </g>
    </g>
    <g id="xtick_6">
     <g id="line2d_11">
      <path clip-path="url(#pdf49eaf6f2)" d="M 298.74245 210.04 
L 298.74245 10.8 
" style="fill:none;stroke:#b0b0b0;stroke-linecap:square;stroke-width:0.8;"/>
     </g>
     <g id="line2d_12">
      <g>
       <use style="stroke:#000000;stroke-width:0.8;" x="298.74245" xlink:href="#m8eaf4bde5e" y="210.04"/>
      </g>
     </g>
     <g id="text_6">
      <!-- 250 -->
      <g transform="translate(289.1987 224.638438)scale(0.1 -0.1)">
       <use xlink:href="#DejaVuSans-50"/>
       <use x="63.623047" xlink:href="#DejaVuSans-53"/>
       <use x="127.246094" xlink:href="#DejaVuSans-48"/>
      </g>
     </g>
    </g>
    <g id="xtick_7">
     <g id="line2d_13">
      <path clip-path="url(#pdf49eaf6f2)" d="M 344.031895 210.04 
L 344.031895 10.8 
" style="fill:none;stroke:#b0b0b0;stroke-linecap:square;stroke-width:0.8;"/>
     </g>
     <g id="line2d_14">
      <g>
       <use style="stroke:#000000;stroke-width:0.8;" x="344.031895" xlink:href="#m8eaf4bde5e" y="210.04"/>
      </g>
     </g>
     <g id="text_7">
      <!-- 300 -->
      <g transform="translate(334.488145 224.638438)scale(0.1 -0.1)">
       <defs>
        <path d="M 40.578125 39.3125 
Q 47.65625 37.796875 51.625 33 
Q 55.609375 28.21875 55.609375 21.1875 
Q 55.609375 10.40625 48.1875 4.484375 
Q 40.765625 -1.421875 27.09375 -1.421875 
Q 22.515625 -1.421875 17.65625 -0.515625 
Q 12.796875 0.390625 7.625 2.203125 
L 7.625 11.71875 
Q 11.71875 9.328125 16.59375 8.109375 
Q 21.484375 6.890625 26.8125 6.890625 
Q 36.078125 6.890625 40.9375 10.546875 
Q 45.796875 14.203125 45.796875 21.1875 
Q 45.796875 27.640625 41.28125 31.265625 
Q 36.765625 34.90625 28.71875 34.90625 
L 20.21875 34.90625 
L 20.21875 43.015625 
L 29.109375 43.015625 
Q 36.375 43.015625 40.234375 45.921875 
Q 44.09375 48.828125 44.09375 54.296875 
Q 44.09375 59.90625 40.109375 62.90625 
Q 36.140625 65.921875 28.71875 65.921875 
Q 24.65625 65.921875 20.015625 65.03125 
Q 15.375 64.15625 9.8125 62.3125 
L 9.8125 71.09375 
Q 15.4375 72.65625 20.34375 73.4375 
Q 25.25 74.21875 29.59375 74.21875 
Q 40.828125 74.21875 47.359375 69.109375 
Q 53.90625 64.015625 53.90625 55.328125 
Q 53.90625 49.265625 50.4375 45.09375 
Q 46.96875 40.921875 40.578125 39.3125 
z
" id="DejaVuSans-51"/>
       </defs>
       <use xlink:href="#DejaVuSans-51"/>
       <use x="63.623047" xlink:href="#DejaVuSans-48"/>
       <use x="127.246094" xlink:href="#DejaVuSans-48"/>
      </g>
     </g>
    </g>
    <g id="text_8">
     <!-- Distance (mm) -->
     <g transform="translate(184.20375 238.316563)scale(0.1 -0.1)">
      <defs>
       <path d="M 19.671875 64.796875 
L 19.671875 8.109375 
L 31.59375 8.109375 
Q 46.6875 8.109375 53.6875 14.9375 
Q 60.6875 21.78125 60.6875 36.53125 
Q 60.6875 51.171875 53.6875 57.984375 
Q 46.6875 64.796875 31.59375 64.796875 
z
M 9.8125 72.90625 
L 30.078125 72.90625 
Q 51.265625 72.90625 61.171875 64.09375 
Q 71.09375 55.28125 71.09375 36.53125 
Q 71.09375 17.671875 61.125 8.828125 
Q 51.171875 0 30.078125 0 
L 9.8125 0 
z
" id="DejaVuSans-68"/>
       <path d="M 9.421875 54.6875 
L 18.40625 54.6875 
L 18.40625 0 
L 9.421875 0 
z
M 9.421875 75.984375 
L 18.40625 75.984375 
L 18.40625 64.59375 
L 9.421875 64.59375 
z
" id="DejaVuSans-105"/>
       <path d="M 44.28125 53.078125 
L 44.28125 44.578125 
Q 40.484375 46.53125 36.375 47.5 
Q 32.28125 48.484375 27.875 48.484375 
Q 21.1875 48.484375 17.84375 46.4375 
Q 14.5 44.390625 14.5 40.28125 
Q 14.5 37.15625 16.890625 35.375 
Q 19.28125 33.59375 26.515625 31.984375 
L 29.59375 31.296875 
Q 39.15625 29.25 43.1875 25.515625 
Q 47.21875 21.78125 47.21875 15.09375 
Q 47.21875 7.46875 41.1875 3.015625 
Q 35.15625 -1.421875 24.609375 -1.421875 
Q 20.21875 -1.421875 15.453125 -0.5625 
Q 10.6875 0.296875 5.421875 2 
L 5.421875 11.28125 
Q 10.40625 8.6875 15.234375 7.390625 
Q 20.0625 6.109375 24.8125 6.109375 
Q 31.15625 6.109375 34.5625 8.28125 
Q 37.984375 10.453125 37.984375 14.40625 
Q 37.984375 18.0625 35.515625 20.015625 
Q 33.0625 21.96875 24.703125 23.78125 
L 21.578125 24.515625 
Q 13.234375 26.265625 9.515625 29.90625 
Q 5.8125 33.546875 5.8125 39.890625 
Q 5.8125 47.609375 11.28125 51.796875 
Q 16.75 56 26.8125 56 
Q 31.78125 56 36.171875 55.265625 
Q 40.578125 54.546875 44.28125 53.078125 
z
" id="DejaVuSans-115"/>
       <path d="M 18.3125 70.21875 
L 18.3125 54.6875 
L 36.8125 54.6875 
L 36.8125 47.703125 
L 18.3125 47.703125 
L 18.3125 18.015625 
Q 18.3125 11.328125 20.140625 9.421875 
Q 21.96875 7.515625 27.59375 7.515625 
L 36.8125 7.515625 
L 36.8125 0 
L 27.59375 0 
Q 17.1875 0 13.234375 3.875 
Q 9.28125 7.765625 9.28125 18.015625 
L 9.28125 47.703125 
L 2.6875 47.703125 
L 2.6875 54.6875 
L 9.28125 54.6875 
L 9.28125 70.21875 
z
" id="DejaVuSans-116"/>
       <path d="M 34.28125 27.484375 
Q 23.390625 27.484375 19.1875 25 
Q 14.984375 22.515625 14.984375 16.5 
Q 14.984375 11.71875 18.140625 8.90625 
Q 21.296875 6.109375 26.703125 6.109375 
Q 34.1875 6.109375 38.703125 11.40625 
Q 43.21875 16.703125 43.21875 25.484375 
L 43.21875 27.484375 
z
M 52.203125 31.203125 
L 52.203125 0 
L 43.21875 0 
L 43.21875 8.296875 
Q 40.140625 3.328125 35.546875 0.953125 
Q 30.953125 -1.421875 24.3125 -1.421875 
Q 15.921875 -1.421875 10.953125 3.296875 
Q 6 8.015625 6 15.921875 
Q 6 25.140625 12.171875 29.828125 
Q 18.359375 34.515625 30.609375 34.515625 
L 43.21875 34.515625 
L 43.21875 35.40625 
Q 43.21875 41.609375 39.140625 45 
Q 35.0625 48.390625 27.6875 48.390625 
Q 23 48.390625 18.546875 47.265625 
Q 14.109375 46.140625 10.015625 43.890625 
L 10.015625 52.203125 
Q 14.9375 54.109375 19.578125 55.046875 
Q 24.21875 56 28.609375 56 
Q 40.484375 56 46.34375 49.84375 
Q 52.203125 43.703125 52.203125 31.203125 
z
" id="DejaVuSans-97"/>
       <path d="M 54.890625 33.015625 
L 54.890625 0 
L 45.90625 0 
L 45.90625 32.71875 
Q 45.90625 40.484375 42.875 44.328125 
Q 39.84375 48.1875 33.796875 48.1875 
Q 26.515625 48.1875 22.3125 43.546875 
Q 18.109375 38.921875 18.109375 30.90625 
L 18.109375 0 
L 9.078125 0 
L 9.078125 54.6875 
L 18.109375 54.6875 
L 18.109375 46.1875 
Q 21.34375 51.125 25.703125 53.5625 
Q 30.078125 56 35.796875 56 
Q 45.21875 56 50.046875 50.171875 
Q 54.890625 44.34375 54.890625 33.015625 
z
" id="DejaVuSans-110"/>
       <path d="M 48.78125 52.59375 
L 48.78125 44.1875 
Q 44.96875 46.296875 41.140625 47.34375 
Q 37.3125 48.390625 33.40625 48.390625 
Q 24.65625 48.390625 19.8125 42.84375 
Q 14.984375 37.3125 14.984375 27.296875 
Q 14.984375 17.28125 19.8125 11.734375 
Q 24.65625 6.203125 33.40625 6.203125 
Q 37.3125 6.203125 41.140625 7.25 
Q 44.96875 8.296875 48.78125 10.40625 
L 48.78125 2.09375 
Q 45.015625 0.34375 40.984375 -0.53125 
Q 36.96875 -1.421875 32.421875 -1.421875 
Q 20.0625 -1.421875 12.78125 6.34375 
Q 5.515625 14.109375 5.515625 27.296875 
Q 5.515625 40.671875 12.859375 48.328125 
Q 20.21875 56 33.015625 56 
Q 37.15625 56 41.109375 55.140625 
Q 45.0625 54.296875 48.78125 52.59375 
z
" id="DejaVuSans-99"/>
       <path d="M 56.203125 29.59375 
L 56.203125 25.203125 
L 14.890625 25.203125 
Q 15.484375 15.921875 20.484375 11.0625 
Q 25.484375 6.203125 34.421875 6.203125 
Q 39.59375 6.203125 44.453125 7.46875 
Q 49.3125 8.734375 54.109375 11.28125 
L 54.109375 2.78125 
Q 49.265625 0.734375 44.1875 -0.34375 
Q 39.109375 -1.421875 33.890625 -1.421875 
Q 20.796875 -1.421875 13.15625 6.1875 
Q 5.515625 13.8125 5.515625 26.8125 
Q 5.515625 40.234375 12.765625 48.109375 
Q 20.015625 56 32.328125 56 
Q 43.359375 56 49.78125 48.890625 
Q 56.203125 41.796875 56.203125 29.59375 
z
M 47.21875 32.234375 
Q 47.125 39.59375 43.09375 43.984375 
Q 39.0625 48.390625 32.421875 48.390625 
Q 24.90625 48.390625 20.390625 44.140625 
Q 15.875 39.890625 15.1875 32.171875 
z
" id="DejaVuSans-101"/>
       <path id="DejaVuSans-32"/>
       <path d="M 31 75.875 
Q 24.46875 64.65625 21.28125 53.65625 
Q 18.109375 42.671875 18.109375 31.390625 
Q 18.109375 20.125 21.3125 9.0625 
Q 24.515625 -2 31 -13.1875 
L 23.1875 -13.1875 
Q 15.875 -1.703125 12.234375 9.375 
Q 8.59375 20.453125 8.59375 31.390625 
Q 8.59375 42.28125 12.203125 53.3125 
Q 15.828125 64.359375 23.1875 75.875 
z
" id="DejaVuSans-40"/>
       <path d="M 52 44.1875 
Q 55.375 50.25 60.0625 53.125 
Q 64.75 56 71.09375 56 
Q 79.640625 56 84.28125 50.015625 
Q 88.921875 44.046875 88.921875 33.015625 
L 88.921875 0 
L 79.890625 0 
L 79.890625 32.71875 
Q 79.890625 40.578125 77.09375 44.375 
Q 74.3125 48.1875 68.609375 48.1875 
Q 61.625 48.1875 57.5625 43.546875 
Q 53.515625 38.921875 53.515625 30.90625 
L 53.515625 0 
L 44.484375 0 
L 44.484375 32.71875 
Q 44.484375 40.625 41.703125 44.40625 
Q 38.921875 48.1875 33.109375 48.1875 
Q 26.21875 48.1875 22.15625 43.53125 
Q 18.109375 38.875 18.109375 30.90625 
L 18.109375 0 
L 9.078125 0 
L 9.078125 54.6875 
L 18.109375 54.6875 
L 18.109375 46.1875 
Q 21.1875 51.21875 25.484375 53.609375 
Q 29.78125 56 35.6875 56 
Q 41.65625 56 45.828125 52.96875 
Q 50 49.953125 52 44.1875 
z
" id="DejaVuSans-109"/>
       <path d="M 8.015625 75.875 
L 15.828125 75.875 
Q 23.140625 64.359375 26.78125 53.3125 
Q 30.421875 42.28125 30.421875 31.390625 
Q 30.421875 20.453125 26.78125 9.375 
Q 23.140625 -1.703125 15.828125 -13.1875 
L 8.015625 -13.1875 
Q 14.5 -2 17.703125 9.0625 
Q 20.90625 20.125 20.90625 31.390625 
Q 20.90625 42.671875 17.703125 53.65625 
Q 14.5 64.65625 8.015625 75.875 
z
" id="DejaVuSans-41"/>
      </defs>
      <use xlink:href="#DejaVuSans-68"/>
      <use x="77.001953" xlink:href="#DejaVuSans-105"/>
      <use x="104.785156" xlink:href="#DejaVuSans-115"/>
      <use x="156.884766" xlink:href="#DejaVuSans-116"/>
      <use x="196.09375" xlink:href="#DejaVuSans-97"/>
      <use x="257.373047" xlink:href="#DejaVuSans-110"/>
      <use x="320.751953" xlink:href="#DejaVuSans-99"/>
      <use x="375.732422" xlink:href="#DejaVuSans-101"/>
      <use x="437.255859" xlink:href="#DejaVuSans-32"/>
      <use x="469.042969" xlink:href="#DejaVuSans-40"/>
      <use x="508.056641" xlink:href="#DejaVuSans-109"/>
      <use x="605.46875" xlink:href="#DejaVuSans-109"/>
      <use x="702.880859" xlink:href="#DejaVuSans-41"/>
     </g>
    </g>
   </g>
   <g id="matplotlib.axis_2">
    <g id="ytick_1">
     <g id="line2d_15">
      <path clip-path="url(#pdf49eaf6f2)" d="M 57.395 185.429379 
L 385.2 185.429379 
" style="fill:none;stroke:#b0b0b0;stroke-linecap:square;stroke-width:0.8;"/>
     </g>
     <g id="line2d_16">
      <defs>
       <path d="M 0 0 
L -3.5 0 
" id="mbb7bcf0fed" style="stroke:#000000;stroke-width:0.8;"/>
      </defs>
      <g>
       <use style="stroke:#000000;stroke-width:0.8;" x="57.395" xlink:href="#mbb7bcf0fed" y="185.429379"/>
      </g>
     </g>
     <g id="text_9">
      <!-- 250 -->
      <g transform="translate(31.3075 189.228598)scale(0.1 -0.1)">
       <use xlink:href="#DejaVuSans-50"/>
       <use x="63.623047" xlink:href="#DejaVuSans-53"/>
       <use x="127.246094" xlink:href="#DejaVuSans-48"/>
      </g>
     </g>
    </g>
    <g id="ytick_2">
     <g id="line2d_17">
      <path clip-path="url(#pdf49eaf6f2)" d="M 57.395 159.885361 
L 385.2 159.885361 
" style="fill:none;stroke:#b0b0b0;stroke-linecap:square;stroke-width:0.8;"/>
     </g>
     <g id="line2d_18">
      <g>
       <use style="stroke:#000000;stroke-width:0.8;" x="57.395" xlink:href="#mbb7bcf0fed" y="159.885361"/>
      </g>
     </g>
     <g id="text_10">
      <!-- 500 -->
      <g transform="translate(31.3075 163.684579)scale(0.1 -0.1)">
       <use xlink:href="#DejaVuSans-53"/>
       <use x="63.623047" xlink:href="#DejaVuSans-48"/>
       <use x="127.246094" xlink:href="#DejaVuSans-48"/>
      </g>
     </g>
    </g>
    <g id="ytick_3">
     <g id="line2d_19">
      <path clip-path="url(#pdf49eaf6f2)" d="M 57.395 134.341343 
L 385.2 134.341343 
" style="fill:none;stroke:#b0b0b0;stroke-linecap:square;stroke-width:0.8;"/>
     </g>
     <g id="line2d_20">
      <g>
       <use style="stroke:#000000;stroke-width:0.8;" x="57.395" xlink:href="#mbb7bcf0fed" y="134.341343"/>
      </g>
     </g>
     <g id="text_11">
      <!-- 750 -->
      <g transform="translate(31.3075 138.140561)scale(0.1 -0.1)">
       <defs>
        <path d="M 8.203125 72.90625 
L 55.078125 72.90625 
L 55.078125 68.703125 
L 28.609375 0 
L 18.3125 0 
L 43.21875 64.59375 
L 8.203125 64.59375 
z
" id="DejaVuSans-55"/>
       </defs>
       <use xlink:href="#DejaVuSans-55"/>
       <use x="63.623047" xlink:href="#DejaVuSans-53"/>
       <use x="127.246094" xlink:href="#DejaVuSans-48"/>
      </g>
     </g>
    </g>
    <g id="ytick_4">
     <g id="line2d_21">
      <path clip-path="url(#pdf49eaf6f2)" d="M 57.395 108.797324 
L 385.2 108.797324 
" style="fill:none;stroke:#b0b0b0;stroke-linecap:square;stroke-width:0.8;"/>
     </g>
     <g id="line2d_22">
      <g>
       <use style="stroke:#000000;stroke-width:0.8;" x="57.395" xlink:href="#mbb7bcf0fed" y="108.797324"/>
      </g>
     </g>
     <g id="text_12">
      <!-- 1000 -->
      <g transform="translate(24.945 112.596543)scale(0.1 -0.1)">
       <use xlink:href="#DejaVuSans-49"/>
       <use x="63.623047" xlink:href="#DejaVuSans-48"/>
       <use x="127.246094" xlink:href="#DejaVuSans-48"/>
       <use x="190.869141" xlink:href="#DejaVuSans-48"/>
      </g>
     </g>
    </g>
    <g id="ytick_5">
     <g id="line2d_23">
      <path clip-path="url(#pdf49eaf6f2)" d="M 57.395 83.253306 
L 385.2 83.253306 
" style="fill:none;stroke:#b0b0b0;stroke-linecap:square;stroke-width:0.8;"/>
     </g>
     <g id="line2d_24">
      <g>
       <use style="stroke:#000000;stroke-width:0.8;" x="57.395" xlink:href="#mbb7bcf0fed" y="83.253306"/>
      </g>
     </g>
     <g id="text_13">
      <!-- 1250 -->
      <g transform="translate(24.945 87.052525)scale(0.1 -0.1)">
       <use xlink:href="#DejaVuSans-49"/>
       <use x="63.623047" xlink:href="#DejaVuSans-50"/>
       <use x="127.246094" xlink:href="#DejaVuSans-53"/>
       <use x="190.869141" xlink:href="#DejaVuSans-48"/>
      </g>
     </g>
    </g>
    <g id="ytick_6">
     <g id="line2d_25">
      <path clip-path="url(#pdf49eaf6f2)" d="M 57.395 57.709288 
L 385.2 57.709288 
" style="fill:none;stroke:#b0b0b0;stroke-linecap:square;stroke-width:0.8;"/>
     </g>
     <g id="line2d_26">
      <g>
       <use style="stroke:#000000;stroke-width:0.8;" x="57.395" xlink:href="#mbb7bcf0fed" y="57.709288"/>
      </g>
     </g>
     <g id="text_14">
      <!-- 1500 -->
      <g transform="translate(24.945 61.508507)scale(0.1 -0.1)">
       <use xlink:href="#DejaVuSans-49"/>
       <use x="63.623047" xlink:href="#DejaVuSans-53"/>
       <use x="127.246094" xlink:href="#DejaVuSans-48"/>
       <use x="190.869141" xlink:href="#DejaVuSans-48"/>
      </g>
     </g>
    </g>
    <g id="ytick_7">
     <g id="line2d_27">
      <path clip-path="url(#pdf49eaf6f2)" d="M 57.395 32.16527 
L 385.2 32.16527 
" style="fill:none;stroke:#b0b0b0;stroke-linecap:square;stroke-width:0.8;"/>
     </g>
     <g id="line2d_28">
      <g>
       <use style="stroke:#000000;stroke-width:0.8;" x="57.395" xlink:href="#mbb7bcf0fed" y="32.16527"/>
      </g>
     </g>
     <g id="text_15">
      <!-- 1750 -->
      <g transform="translate(24.945 35.964488)scale(0.1 -0.1)">
       <use xlink:href="#DejaVuSans-49"/>
       <use x="63.623047" xlink:href="#DejaVuSans-55"/>
       <use x="127.246094" xlink:href="#DejaVuSans-53"/>
       <use x="190.869141" xlink:href="#DejaVuSans-48"/>
      </g>
     </g>
    </g>
    <g id="text_16">
     <!-- Density (kg/m³) -->
     <g transform="translate(18.865312 149.548125)rotate(-90)scale(0.1 -0.1)">
      <defs>
       <path d="M 32.171875 -5.078125 
Q 28.375 -14.84375 24.75 -17.8125 
Q 21.140625 -20.796875 15.09375 -20.796875 
L 7.90625 -20.796875 
L 7.90625 -13.28125 
L 13.1875 -13.28125 
Q 16.890625 -13.28125 18.9375 -11.515625 
Q 21 -9.765625 23.484375 -3.21875 
L 25.09375 0.875 
L 2.984375 54.6875 
L 12.5 54.6875 
L 29.59375 11.921875 
L 46.6875 54.6875 
L 56.203125 54.6875 
z
" id="DejaVuSans-121"/>
       <path d="M 9.078125 75.984375 
L 18.109375 75.984375 
L 18.109375 31.109375 
L 44.921875 54.6875 
L 56.390625 54.6875 
L 27.390625 29.109375 
L 57.625 0 
L 45.90625 0 
L 18.109375 26.703125 
L 18.109375 0 
L 9.078125 0 
z
" id="DejaVuSans-107"/>
       <path d="M 45.40625 27.984375 
Q 45.40625 37.75 41.375 43.109375 
Q 37.359375 48.484375 30.078125 48.484375 
Q 22.859375 48.484375 18.828125 43.109375 
Q 14.796875 37.75 14.796875 27.984375 
Q 14.796875 18.265625 18.828125 12.890625 
Q 22.859375 7.515625 30.078125 7.515625 
Q 37.359375 7.515625 41.375 12.890625 
Q 45.40625 18.265625 45.40625 27.984375 
z
M 54.390625 6.78125 
Q 54.390625 -7.171875 48.1875 -13.984375 
Q 42 -20.796875 29.203125 -20.796875 
Q 24.46875 -20.796875 20.265625 -20.09375 
Q 16.0625 -19.390625 12.109375 -17.921875 
L 12.109375 -9.1875 
Q 16.0625 -11.328125 19.921875 -12.34375 
Q 23.78125 -13.375 27.78125 -13.375 
Q 36.625 -13.375 41.015625 -8.765625 
Q 45.40625 -4.15625 45.40625 5.171875 
L 45.40625 9.625 
Q 42.625 4.78125 38.28125 2.390625 
Q 33.9375 0 27.875 0 
Q 17.828125 0 11.671875 7.65625 
Q 5.515625 15.328125 5.515625 27.984375 
Q 5.515625 40.671875 11.671875 48.328125 
Q 17.828125 56 27.875 56 
Q 33.9375 56 38.28125 53.609375 
Q 42.625 51.21875 45.40625 46.390625 
L 45.40625 54.6875 
L 54.390625 54.6875 
z
" id="DejaVuSans-103"/>
       <path d="M 25.390625 72.90625 
L 33.6875 72.90625 
L 8.296875 -9.28125 
L 0 -9.28125 
z
" id="DejaVuSans-47"/>
       <path d="M 25.59375 54.6875 
Q 30.078125 53.8125 32.546875 51.140625 
Q 35.015625 48.484375 35.015625 44.484375 
Q 35.015625 38.421875 30.375 35.15625 
Q 25.734375 31.890625 17.09375 31.890625 
Q 14.3125 31.890625 11.25 32.390625 
Q 8.203125 32.90625 4.78125 33.890625 
L 4.78125 39.796875 
Q 7.328125 38.484375 10.234375 37.84375 
Q 13.140625 37.203125 16.40625 37.203125 
Q 21.734375 37.203125 24.65625 39.125 
Q 27.59375 41.0625 27.59375 44.484375 
Q 27.59375 48.09375 24.875 49.953125 
Q 22.171875 51.8125 16.890625 51.8125 
L 12.703125 51.8125 
L 12.703125 57.078125 
L 17.28125 57.078125 
Q 21.875 57.078125 24.234375 58.609375 
Q 26.609375 60.15625 26.609375 63.09375 
Q 26.609375 65.921875 24.171875 67.40625 
Q 21.734375 68.890625 17.09375 68.890625 
Q 15.140625 68.890625 12.640625 68.453125 
Q 10.15625 68.015625 6.203125 66.890625 
L 6.203125 72.515625 
Q 9.765625 73.34375 12.890625 73.78125 
Q 16.015625 74.21875 18.703125 74.21875 
Q 25.734375 74.21875 29.859375 71.328125 
Q 33.984375 68.453125 33.984375 63.625 
Q 33.984375 60.25 31.78125 57.90625 
Q 29.59375 55.5625 25.59375 54.6875 
z
" id="DejaVuSans-179"/>
      </defs>
      <use xlink:href="#DejaVuSans-68"/>
      <use x="77.001953" xlink:href="#DejaVuSans-101"/>
      <use x="138.525391" xlink:href="#DejaVuSans-110"/>
      <use x="201.904297" xlink:href="#DejaVuSans-115"/>
      <use x="254.003906" xlink:href="#DejaVuSans-105"/>
      <use x="281.787109" xlink:href="#DejaVuSans-116"/>
      <use x="320.996094" xlink:href="#DejaVuSans-121"/>
      <use x="380.175781" xlink:href="#DejaVuSans-32"/>
      <use x="411.962891" xlink:href="#DejaVuSans-40"/>
      <use x="450.976562" xlink:href="#DejaVuSans-107"/>
      <use x="508.886719" xlink:href="#DejaVuSans-103"/>
      <use x="572.363281" xlink:href="#DejaVuSans-47"/>
      <use x="606.054688" xlink:href="#DejaVuSans-109"/>
      <use x="703.466797" xlink:href="#DejaVuSans-179"/>
      <use x="743.554688" xlink:href="#DejaVuSans-41"/>
     </g>
    </g>
   </g>
   <g id="line2d_29">
    <path clip-path="url(#pdf49eaf6f2)" d="M 72.295227 192.052966 
L 73.201016 189.83883 
L 74.106805 191.607807 
L 75.012594 187.35542 
L 75.918383 187.397688 
L 76.824172 187.581667 
L 77.729961 187.426445 
L 78.63575 172.863876 
L 80.447327 165.272669 
L 81.353116 170.05767 
L 82.258905 173.117415 
L 83.164694 173.639245 
L 84.070483 175.622896 
L 84.976272 175.413364 
L 85.882061 176.376141 
L 86.78785 177.157797 
L 87.693638 177.551369 
L 88.599427 177.694897 
L 90.411005 175.971389 
L 91.316794 176.250781 
L 92.222583 176.391846 
L 93.128372 176.100731 
L 94.034161 176.611771 
L 94.93995 176.587322 
L 95.845738 175.895877 
L 96.751527 175.405918 
L 98.563105 175.871941 
L 99.468894 176.97279 
L 100.374683 178.596246 
L 101.280472 181.373241 
L 102.186261 183.462452 
L 103.09205 184.186473 
L 103.997838 184.315513 
L 104.903627 184.0361 
L 105.809416 183.60619 
L 106.715205 184.664526 
L 107.620994 186.511065 
L 108.526783 186.394411 
L 109.432572 187.011935 
L 110.338361 186.189784 
L 111.24415 186.143197 
L 112.149939 184.729633 
L 113.055727 186.170013 
L 113.961516 190.47427 
L 114.867305 190.445144 
L 116.678883 190.786366 
L 117.584672 189.607541 
L 118.490461 190.051709 
L 119.39625 189.304761 
L 120.302039 189.222036 
L 121.207827 189.529326 
L 122.113616 189.532605 
L 123.019405 190.240015 
L 123.925194 190.307489 
L 124.830983 189.479503 
L 125.736772 189.918585 
L 126.642561 189.703828 
L 127.54835 190.771495 
L 128.454139 189.403756 
L 129.359927 189.797119 
L 130.265716 190.797159 
L 131.171505 191.523146 
L 132.077294 190.480636 
L 132.983083 190.608691 
L 133.888872 190.874963 
L 134.794661 188.922169 
L 136.606239 188.555172 
L 137.512027 188.09994 
L 138.417816 189.007203 
L 139.323605 188.349362 
L 140.229394 188.563312 
L 141.135183 188.242587 
L 142.040972 187.41113 
L 142.946761 186.846804 
L 143.85255 186.83953 
L 144.758339 187.788624 
L 145.664128 187.662888 
L 146.569916 187.012315 
L 147.475705 187.937264 
L 148.381494 188.431994 
L 149.287283 188.410295 
L 150.193072 187.290543 
L 151.098861 188.522581 
L 152.910439 188.369962 
L 154.722016 186.581875 
L 155.627805 187.198754 
L 156.533594 186.770544 
L 157.439383 187.374152 
L 158.345172 187.632174 
L 159.250961 186.669661 
L 160.15675 187.461838 
L 161.062539 187.233979 
L 161.968328 187.544688 
L 162.874116 188.529642 
L 164.685694 187.357888 
L 165.591483 188.100577 
L 166.497272 187.482839 
L 167.403061 187.150695 
L 168.30885 187.496311 
L 169.214639 188.175323 
L 170.120428 188.047971 
L 171.026216 188.145611 
L 171.932005 187.360397 
L 172.837794 187.685057 
L 173.743583 187.63506 
L 174.649372 187.390015 
L 175.555161 187.317427 
L 176.46095 187.631865 
L 177.366739 189.032687 
L 178.272528 188.562625 
L 179.178317 189.814121 
L 180.084105 190.577034 
L 180.989894 189.493032 
L 181.895683 191.940777 
L 182.801472 191.169515 
L 183.707261 189.722458 
L 184.61305 190.428588 
L 185.518839 188.692087 
L 186.424628 190.457112 
L 187.330417 188.985289 
L 188.236205 189.906883 
L 189.141994 190.10332 
L 190.047783 190.43582 
L 190.953572 188.839157 
L 191.859361 189.464305 
L 192.76515 189.652227 
L 193.670939 190.625352 
L 194.576728 189.88409 
L 195.482517 190.885649 
L 196.388305 191.450869 
L 197.294094 190.925959 
L 198.199883 189.248407 
L 199.105672 191.026084 
L 200.011461 190.412733 
L 200.91725 189.640186 
L 202.728828 188.794847 
L 203.634617 188.984247 
L 204.540405 187.826506 
L 205.446194 188.392166 
L 206.351983 188.17544 
L 207.257772 188.627764 
L 208.163561 187.573681 
L 209.06935 189.395162 
L 209.975139 187.951651 
L 210.880928 188.263263 
L 211.786717 187.072194 
L 212.692506 189.902175 
L 213.598294 190.060332 
L 214.504083 188.766026 
L 215.409872 190.138936 
L 216.315661 189.600927 
L 217.22145 190.823294 
L 218.127239 191.304788 
L 219.033028 188.623436 
L 220.844606 191.762023 
L 221.750394 190.442052 
L 222.656183 187.703527 
L 223.561972 189.485933 
L 224.467761 188.459059 
L 225.37355 190.957533 
L 226.279339 191.500542 
L 228.996706 189.512667 
L 229.902494 190.443985 
L 230.808283 189.336836 
L 231.714072 191.113593 
L 232.619861 191.498496 
L 233.52565 191.629813 
L 234.431439 190.262507 
L 235.337228 190.119846 
L 236.243017 188.779667 
L 237.148806 191.019309 
L 238.054595 188.268203 
L 238.960383 190.168195 
L 239.866172 190.415438 
L 240.771961 189.899761 
L 241.67775 189.185567 
L 242.583539 190.062049 
L 244.395117 190.170384 
L 245.300906 189.957894 
L 246.206695 190.498326 
L 247.112483 189.47309 
L 248.018272 191.030591 
L 248.924061 190.352637 
L 249.82985 190.308327 
L 250.735639 189.335781 
L 251.641428 189.461856 
L 252.547217 189.219634 
L 253.453006 189.95831 
L 254.358795 188.646917 
L 255.264583 188.19242 
L 256.170372 187.987158 
L 257.076161 187.653248 
L 257.98195 187.167144 
L 258.887739 188.695191 
L 259.793528 188.257904 
L 261.605106 187.015169 
L 262.510895 186.844079 
L 263.416683 187.952719 
L 264.322472 188.197195 
L 265.228261 187.327782 
L 266.13405 187.951044 
L 267.039839 187.841228 
L 267.945628 188.741839 
L 268.851417 189.809577 
L 269.757206 188.296072 
L 270.662995 190.653248 
L 271.568784 189.350524 
L 272.474572 190.201549 
L 273.380361 189.602192 
L 274.28615 189.390785 
L 275.191939 188.552813 
L 276.097728 191.448454 
L 277.003517 188.90277 
L 277.909306 189.106515 
L 278.815095 188.825458 
L 279.720884 189.687255 
L 280.626672 186.757954 
L 281.532461 188.673503 
L 282.43825 189.470136 
L 283.344039 189.593162 
L 284.249828 187.622017 
L 285.155617 189.689383 
L 286.061406 189.523673 
L 286.967195 188.96393 
L 287.872984 189.409071 
L 288.778772 188.087945 
L 289.684561 189.215068 
L 290.59035 188.186229 
L 291.496139 189.645265 
L 292.401928 188.918569 
L 293.307717 191.133738 
L 294.213506 187.927181 
L 295.119295 190.113255 
L 296.025084 189.081893 
L 296.930872 189.354676 
L 297.836661 187.971448 
L 298.74245 188.343138 
L 299.648239 190.957905 
L 300.554028 189.601226 
L 301.459817 187.54706 
L 302.365606 187.149281 
L 303.271395 189.118235 
L 304.177184 188.562492 
L 305.082973 187.776963 
L 306.89455 187.809624 
L 307.800339 186.853544 
L 308.706128 186.767079 
L 309.611917 180.256635 
L 310.517706 179.00522 
L 311.423495 177.119119 
L 312.329284 174.692287 
L 313.235073 175.722842 
L 314.140861 176.483538 
L 315.04665 177.396836 
L 315.952439 177.121638 
L 316.858228 173.907799 
L 317.764017 169.867233 
L 318.669806 172.345354 
L 319.575595 172.031898 
L 320.481384 175.105533 
L 321.387173 175.887457 
L 322.292961 172.503373 
L 324.104539 173.194476 
L 325.010328 176.221196 
L 325.916117 174.537391 
L 326.821906 176.94654 
L 327.727695 178.202973 
L 328.633484 178.159027 
L 329.539273 176.192305 
L 330.445061 177.434205 
L 331.35085 175.238326 
L 332.256639 178.937673 
L 333.162428 175.861559 
L 334.068217 175.624332 
L 336.785584 171.733919 
L 337.691373 168.799146 
L 338.597162 168.520973 
L 339.50295 168.614752 
L 340.408739 169.953062 
L 341.314528 170.555794 
L 342.220317 167.292024 
L 343.126106 168.242854 
L 344.031895 170.79208 
L 344.937684 172.614657 
L 345.843473 171.281597 
L 346.749262 176.061849 
L 347.65505 175.571727 
L 348.560839 173.456967 
L 349.466628 171.810367 
L 350.372417 173.647061 
L 351.278206 174.391645 
L 353.089784 174.523672 
L 353.995573 175.065257 
L 354.901362 175.216504 
L 355.80715 178.197314 
L 356.712939 176.315417 
L 357.618728 175.537946 
L 359.430306 175.216314 
L 360.336095 175.713431 
L 361.241884 176.038051 
L 362.147673 175.488804 
L 363.053462 178.690136 
L 363.95925 178.137919 
L 364.865039 175.401941 
L 365.770828 174.875121 
L 366.676617 176.500606 
L 367.582406 176.627239 
L 368.488195 177.579369 
L 369.393984 174.465298 
L 370.299773 177.402808 
L 370.299773 177.402808 
" style="fill:none;stroke:#1f77b4;stroke-linecap:square;stroke-opacity:0.6;stroke-width:1.5;"/>
   </g>
   <g id="line2d_30">
    <path clip-path="url(#pdf49eaf6f2)" d="M 72.295227 193.352647 
L 73.201016 177.292237 
L 74.106805 185.997329 
L 75.012594 189.391533 
L 75.918383 188.404605 
L 76.824172 188.980597 
L 77.729961 182.638957 
L 78.63575 174.859859 
L 79.541538 169.509943 
L 80.447327 168.289725 
L 81.353116 164.544709 
L 82.258905 168.426666 
L 83.164694 173.06192 
L 84.070483 174.712886 
L 84.976272 175.124896 
L 86.78785 177.936116 
L 88.599427 177.900188 
L 89.505216 176.955914 
L 91.316794 175.967999 
L 92.222583 174.761662 
L 93.128372 176.289982 
L 94.034161 176.218863 
L 94.93995 176.018115 
L 95.845738 176.38701 
L 96.751527 176.538239 
L 97.657316 176.392778 
L 98.563105 178.569043 
L 100.374683 180.830658 
L 101.280472 182.893922 
L 102.186261 184.227161 
L 103.09205 184.793146 
L 103.997838 186.031767 
L 106.715205 188.495248 
L 107.620994 188.775889 
L 108.526783 187.978191 
L 109.432572 188.111731 
L 110.338361 187.928936 
L 111.24415 188.002751 
L 112.149939 187.47157 
L 113.055727 187.335724 
L 113.961516 187.627874 
L 116.678883 187.693872 
L 117.584672 186.991087 
L 119.39625 188.526418 
L 120.302039 188.666596 
L 121.207827 188.557629 
L 122.113616 187.302244 
L 123.019405 188.176404 
L 123.925194 187.633084 
L 124.830983 188.58407 
L 125.736772 187.834187 
L 127.54835 188.537603 
L 128.454139 185.66191 
L 129.359927 188.812645 
L 132.077294 190.152795 
L 132.983083 189.777747 
L 133.888872 189.133082 
L 134.794661 189.469929 
L 135.70045 189.49752 
L 136.606239 188.355029 
L 137.512027 188.359156 
L 138.417816 187.992878 
L 139.323605 188.572864 
L 140.229394 187.288407 
L 141.135183 186.991177 
L 142.040972 187.213403 
L 142.946761 186.922844 
L 143.85255 187.165461 
L 144.758339 186.445199 
L 145.664128 186.21407 
L 146.569916 186.416705 
L 147.475705 187.038745 
L 148.381494 186.029592 
L 149.287283 186.373983 
L 150.193072 187.191585 
L 151.098861 186.642836 
L 152.00465 187.007912 
L 153.816228 186.228781 
L 154.722016 186.551694 
L 155.627805 187.339247 
L 156.533594 186.171451 
L 157.439383 187.292363 
L 158.345172 186.592966 
L 159.250961 186.477615 
L 160.15675 187.268695 
L 161.062539 186.327946 
L 161.968328 186.845312 
L 162.874116 186.151974 
L 163.779905 186.869369 
L 164.685694 186.65496 
L 165.591483 187.099203 
L 166.497272 186.471004 
L 167.403061 187.402288 
L 168.30885 187.352811 
L 169.214639 187.085804 
L 170.120428 187.701608 
L 171.026216 186.701379 
L 171.932005 186.944371 
L 172.837794 187.94132 
L 173.743583 186.996901 
L 174.649372 187.592603 
L 175.555161 187.977575 
L 176.46095 189.638987 
L 177.366739 188.514206 
L 178.272528 190.122782 
L 179.178317 188.691569 
L 180.084105 188.314893 
L 180.989894 189.555211 
L 181.895683 189.602641 
L 182.801472 188.968686 
L 183.707261 187.909622 
L 184.61305 188.828838 
L 185.518839 189.306351 
L 186.424628 189.230138 
L 187.330417 187.93728 
L 188.236205 189.365141 
L 189.141994 188.46589 
L 190.047783 189.305237 
L 190.953572 189.318074 
L 191.859361 189.58138 
L 193.670939 189.039216 
L 194.576728 189.047787 
L 195.482517 190.219253 
L 196.388305 189.83157 
L 197.294094 188.577826 
L 198.199883 188.828245 
L 199.105672 186.88022 
L 200.011461 187.637977 
L 202.728828 187.492319 
L 203.634617 185.879849 
L 204.540405 186.790205 
L 205.446194 186.463372 
L 206.351983 186.841203 
L 207.257772 186.616721 
L 208.163561 186.945718 
L 209.06935 186.421832 
L 209.975139 187.917036 
L 210.880928 186.657242 
L 211.786717 187.575325 
L 212.692506 187.936821 
L 213.598294 187.850366 
L 214.504083 188.667168 
L 215.409872 189.746948 
L 216.315661 190.534149 
L 217.22145 188.871709 
L 218.127239 187.550302 
L 219.033028 187.812113 
L 219.938817 187.187039 
L 220.844606 188.794528 
L 221.750394 187.992764 
L 222.656183 189.861879 
L 223.561972 189.102997 
L 224.467761 189.313152 
L 225.37355 190.239878 
L 226.279339 189.348844 
L 227.185128 189.9221 
L 228.090917 189.053122 
L 228.996706 189.9485 
L 230.808283 190.771839 
L 231.714072 188.54317 
L 232.619861 188.154017 
L 233.52565 189.979405 
L 234.431439 189.750941 
L 235.337228 188.950201 
L 236.243017 188.79296 
L 237.148806 189.570133 
L 238.054595 189.031204 
L 238.960383 189.642717 
L 239.866172 188.726406 
L 240.771961 189.315103 
L 241.67775 186.520441 
L 242.583539 187.731746 
L 243.489328 187.208803 
L 244.395117 188.235236 
L 245.300906 188.134142 
L 246.206695 188.424694 
L 247.112483 188.13351 
L 248.018272 187.417822 
L 248.924061 187.489011 
L 250.735639 186.802267 
L 251.641428 186.866616 
L 252.547217 186.650891 
L 253.453006 187.999374 
L 254.358795 187.595519 
L 255.264583 186.260875 
L 256.170372 185.811284 
L 257.076161 188.779916 
L 258.887739 188.95511 
L 260.699317 186.925737 
L 261.605106 188.072465 
L 262.510895 187.68309 
L 263.416683 185.144436 
L 264.322472 188.31803 
L 265.228261 188.557316 
L 266.13405 189.28444 
L 267.039839 188.328033 
L 267.945628 187.986682 
L 268.851417 188.102698 
L 269.757206 188.704199 
L 270.662995 187.340317 
L 271.568784 188.001439 
L 272.474572 187.88347 
L 273.380361 187.513143 
L 274.28615 187.913395 
L 275.191939 186.195582 
L 276.097728 188.241808 
L 277.003517 186.648034 
L 277.909306 187.818885 
L 278.815095 187.538106 
L 279.720884 186.551871 
L 280.626672 188.091344 
L 281.532461 185.870689 
L 282.43825 187.901581 
L 283.344039 188.354712 
L 284.249828 188.589543 
L 285.155617 188.00592 
L 286.061406 187.10862 
L 286.967195 188.41969 
L 287.872984 187.676892 
L 288.778772 186.244409 
L 289.684561 188.170347 
L 290.59035 188.091843 
L 291.496139 188.216299 
L 292.401928 184.94929 
L 293.307717 185.825165 
L 294.213506 185.537279 
L 295.119295 185.508484 
L 296.025084 186.229536 
L 296.930872 186.668345 
L 297.836661 188.568055 
L 298.74245 186.99543 
L 299.648239 188.394809 
L 300.554028 185.721061 
L 301.459817 175.395608 
L 302.365606 177.239927 
L 303.271395 175.434607 
L 304.177184 173.962217 
L 305.082973 176.24198 
L 306.89455 173.928138 
L 307.800339 173.874661 
L 308.706128 174.774056 
L 309.611917 175.400397 
L 311.423495 171.620939 
L 312.329284 173.984499 
L 313.235073 175.223642 
L 314.140861 174.869451 
L 315.04665 174.995241 
L 315.952439 173.786719 
L 316.858228 173.730451 
L 317.764017 173.849791 
L 318.669806 175.62767 
L 319.575595 173.797902 
L 320.481384 177.588286 
L 321.387173 179.472405 
L 322.292961 176.843566 
L 323.19875 178.302924 
L 324.104539 176.274168 
L 325.010328 176.225032 
L 325.916117 172.81362 
L 326.821906 170.989105 
L 327.727695 170.148986 
L 328.633484 169.002801 
L 329.539273 170.313559 
L 330.445061 169.436361 
L 331.35085 170.614289 
L 332.256639 170.782183 
L 333.162428 170.833706 
L 334.068217 170.74648 
L 334.974006 171.88612 
L 335.879795 170.552894 
L 336.785584 168.899967 
L 337.691373 169.116472 
L 338.597162 169.476496 
L 339.50295 168.862794 
L 340.408739 169.33426 
L 341.314528 165.440993 
L 342.220317 165.885036 
L 344.031895 164.248259 
L 344.937684 168.246125 
L 345.843473 167.210137 
L 346.749262 172.337229 
L 347.65505 171.170843 
L 348.560839 175.126543 
L 349.466628 173.138476 
L 350.372417 173.822656 
L 351.278206 175.996029 
L 352.183995 175.38852 
L 353.089784 174.224908 
L 353.995573 177.406961 
L 354.901362 181.545929 
L 355.80715 178.221694 
L 356.712939 176.507957 
L 357.618728 177.570422 
L 358.524517 177.160603 
L 359.430306 177.955922 
L 360.336095 174.508906 
L 361.241884 177.962574 
L 362.147673 176.251676 
L 363.053462 176.542486 
L 363.95925 172.000843 
L 364.865039 19.856364 
L 365.770828 182.269685 
L 366.676617 187.150254 
L 367.582406 186.828867 
L 368.488195 189.695289 
L 369.393984 178.241783 
L 370.299773 176.74291 
L 370.299773 176.74291 
" style="fill:none;stroke:#ff7f0e;stroke-linecap:square;stroke-opacity:0.6;stroke-width:1.5;"/>
   </g>
   <g id="line2d_31">
    <path clip-path="url(#pdf49eaf6f2)" d="M 72.295227 200.983636 
L 73.201016 198.375643 
L 74.106805 190.378353 
L 75.012594 189.344521 
L 75.918383 188.846806 
L 76.824172 186.739737 
L 77.729961 188.221196 
L 78.63575 169.19458 
L 79.541538 170.676133 
L 80.447327 164.271591 
L 81.353116 172.678839 
L 82.258905 169.566958 
L 83.164694 171.897517 
L 84.070483 171.12752 
L 84.976272 171.613416 
L 85.882061 171.31202 
L 86.78785 171.431952 
L 87.693638 172.482235 
L 88.599427 174.446344 
L 89.505216 177.591361 
L 90.411005 177.605957 
L 91.316794 176.908206 
L 92.222583 176.658775 
L 94.034161 176.689855 
L 94.93995 176.964524 
L 95.845738 176.842046 
L 96.751527 178.678645 
L 97.657316 179.563371 
L 99.468894 180.134906 
L 100.374683 183.438144 
L 101.280472 184.244402 
L 102.186261 184.142025 
L 103.09205 184.367577 
L 103.997838 186.06651 
L 104.903627 186.79539 
L 105.809416 186.350559 
L 107.620994 187.978537 
L 108.526783 189.119305 
L 109.432572 188.381151 
L 110.338361 189.463827 
L 111.24415 189.2153 
L 112.149939 189.69426 
L 113.055727 188.881394 
L 113.961516 188.9165 
L 114.867305 189.491459 
L 116.678883 190.07612 
L 117.584672 189.477306 
L 118.490461 188.373046 
L 119.39625 190.212051 
L 120.302039 190.710698 
L 121.207827 189.436747 
L 122.113616 190.683898 
L 123.019405 189.12117 
L 123.925194 190.929221 
L 124.830983 190.164516 
L 125.736772 189.868195 
L 126.642561 189.916499 
L 127.54835 188.447966 
L 128.454139 189.727452 
L 129.359927 189.068872 
L 130.265716 190.610627 
L 131.171505 188.825454 
L 132.077294 189.019935 
L 132.983083 187.912186 
L 133.888872 188.348735 
L 134.794661 188.181504 
L 135.70045 187.547436 
L 136.606239 187.684697 
L 137.512027 187.475147 
L 139.323605 187.477998 
L 140.229394 187.713183 
L 141.135183 188.725887 
L 142.040972 187.059456 
L 142.946761 187.69222 
L 143.85255 187.496729 
L 144.758339 187.042044 
L 145.664128 187.039721 
L 146.569916 187.726352 
L 147.475705 187.805314 
L 148.381494 187.687127 
L 150.193072 187.724432 
L 151.098861 188.429164 
L 152.00465 188.049849 
L 152.910439 188.83914 
L 153.816228 188.605285 
L 154.722016 188.645165 
L 155.627805 187.745991 
L 156.533594 187.82839 
L 157.439383 188.342319 
L 158.345172 187.071407 
L 160.15675 187.976273 
L 161.062539 188.16395 
L 161.968328 187.081708 
L 162.874116 188.440085 
L 163.779905 188.251635 
L 164.685694 188.636718 
L 165.591483 187.850361 
L 167.403061 187.054216 
L 169.214639 187.371087 
L 170.120428 188.115538 
L 171.932005 187.902092 
L 172.837794 189.025716 
L 173.743583 188.02378 
L 174.649372 188.80145 
L 176.46095 189.083824 
L 177.366739 189.591746 
L 178.272528 191.998259 
L 180.084105 190.695601 
L 180.989894 190.866551 
L 181.895683 189.684149 
L 182.801472 189.237944 
L 183.707261 190.840441 
L 184.61305 190.356755 
L 185.518839 189.235264 
L 186.424628 191.107048 
L 187.330417 188.974498 
L 188.236205 192.226334 
L 189.141994 191.005369 
L 190.047783 192.17919 
L 190.953572 190.141903 
L 191.859361 188.848904 
L 192.76515 190.559003 
L 193.670939 187.137248 
L 194.576728 187.957744 
L 195.482517 187.058162 
L 196.388305 187.823911 
L 197.294094 187.489144 
L 199.105672 187.971696 
L 200.011461 188.837446 
L 200.91725 188.552262 
L 201.823039 188.962458 
L 202.728828 187.573756 
L 204.540405 188.17513 
L 205.446194 189.254798 
L 207.257772 190.769 
L 208.163561 188.140406 
L 209.06935 189.748881 
L 209.975139 189.709835 
L 210.880928 188.047977 
L 211.786717 191.491758 
L 212.692506 191.853799 
L 213.598294 190.715423 
L 214.504083 190.183818 
L 215.409872 189.174174 
L 216.315661 190.636437 
L 217.22145 189.269681 
L 218.127239 190.95003 
L 219.033028 190.256938 
L 219.938817 191.563499 
L 220.844606 190.948445 
L 221.750394 189.33337 
L 222.656183 189.767296 
L 223.561972 191.060885 
L 224.467761 190.725674 
L 225.37355 191.31116 
L 226.279339 190.890638 
L 227.185128 191.526139 
L 228.090917 190.651494 
L 228.996706 189.564501 
L 229.902494 189.486497 
L 230.808283 189.171339 
L 231.714072 189.76835 
L 232.619861 190.110017 
L 233.52565 189.800249 
L 234.431439 188.515193 
L 235.337228 186.839896 
L 236.243017 189.455053 
L 237.148806 188.749644 
L 238.054595 188.864541 
L 238.960383 186.874491 
L 239.866172 188.652351 
L 240.771961 187.411465 
L 241.67775 188.315623 
L 242.583539 186.371144 
L 243.489328 186.701467 
L 244.395117 189.683461 
L 245.300906 190.915703 
L 246.206695 189.069517 
L 247.112483 188.350393 
L 248.018272 190.665211 
L 248.924061 189.56523 
L 249.82985 188.730566 
L 250.735639 189.825488 
L 251.641428 189.499361 
L 252.547217 189.861476 
L 253.453006 191.036813 
L 254.358795 188.46169 
L 255.264583 190.094046 
L 256.170372 188.612168 
L 257.076161 190.377186 
L 257.98195 188.427157 
L 258.887739 189.905461 
L 259.793528 189.561874 
L 260.699317 187.866646 
L 261.605106 186.792385 
L 262.510895 189.297326 
L 263.416683 189.049611 
L 264.322472 189.713377 
L 265.228261 188.256393 
L 266.13405 188.643205 
L 267.039839 189.361955 
L 267.945628 190.277553 
L 268.851417 190.69099 
L 269.757206 190.058443 
L 271.568784 188.957885 
L 272.474572 189.026481 
L 273.380361 186.788922 
L 274.28615 190.167215 
L 275.191939 187.734551 
L 276.097728 189.853342 
L 277.003517 189.401508 
L 277.909306 189.702365 
L 278.815095 187.961407 
L 279.720884 188.458665 
L 280.626672 189.120146 
L 281.532461 188.365444 
L 282.43825 188.17863 
L 283.344039 186.363308 
L 284.249828 186.797284 
L 286.061406 188.758886 
L 286.967195 188.672089 
L 287.872984 187.149734 
L 288.778772 186.755663 
L 290.59035 175.798722 
L 291.496139 178.949665 
L 292.401928 175.483342 
L 294.213506 173.687459 
L 295.119295 176.549311 
L 296.025084 176.30681 
L 296.930872 173.731295 
L 297.836661 175.664916 
L 298.74245 178.977693 
L 299.648239 177.932305 
L 300.554028 175.833326 
L 301.459817 175.153114 
L 302.365606 177.280899 
L 303.271395 176.826812 
L 304.177184 175.556615 
L 305.082973 174.723341 
L 305.988761 175.641745 
L 306.89455 173.94174 
L 307.800339 172.514079 
L 308.706128 172.753949 
L 309.611917 172.542619 
L 311.423495 168.358481 
L 312.329284 168.227392 
L 313.235073 167.613911 
L 314.140861 166.819907 
L 315.04665 170.447806 
L 315.952439 167.590928 
L 316.858228 168.319111 
L 317.764017 168.313314 
L 318.669806 167.586071 
L 319.575595 168.971503 
L 320.481384 169.181102 
L 321.387173 168.741889 
L 322.292961 171.783557 
L 323.19875 168.122543 
L 324.104539 171.887714 
L 325.010328 172.106747 
L 325.916117 171.136926 
L 326.821906 169.91761 
L 327.727695 169.705794 
L 328.633484 169.993909 
L 329.539273 170.719879 
L 330.445061 167.890047 
L 331.35085 169.657357 
L 332.256639 172.051647 
L 333.162428 172.949289 
L 334.068217 171.128119 
L 334.974006 173.921587 
L 335.879795 173.743338 
L 336.785584 172.412763 
L 337.691373 171.484907 
L 338.597162 169.412832 
L 339.50295 171.838336 
L 340.408739 171.517123 
L 341.314528 171.878063 
L 342.220317 167.322239 
L 343.126106 168.174344 
L 344.937684 169.311351 
L 345.843473 173.215857 
L 346.749262 173.379325 
L 347.65505 173.801292 
L 348.560839 175.941617 
L 349.466628 178.65797 
L 350.372417 175.576981 
L 351.278206 175.74733 
L 352.183995 178.761717 
L 353.089784 177.124724 
L 353.995573 178.627035 
L 354.901362 180.500966 
L 355.80715 178.818551 
L 356.712939 177.661864 
L 357.618728 178.829532 
L 358.524517 177.075701 
L 359.430306 178.511724 
L 360.336095 177.427682 
L 362.147673 176.025262 
L 363.053462 176.35028 
L 363.95925 177.949119 
L 364.865039 177.646364 
L 365.770828 176.502451 
L 366.676617 177.776706 
L 367.582406 176.113943 
L 368.488195 175.209047 
L 369.393984 175.40818 
L 370.299773 179.268688 
L 370.299773 179.268688 
" style="fill:none;stroke:#2ca02c;stroke-linecap:square;stroke-opacity:0.6;stroke-width:1.5;"/>
   </g>
   <g id="line2d_32">
    <path clip-path="url(#pdf49eaf6f2)" d="M 72.295227 187.677037 
L 73.201016 194.672091 
L 74.106805 191.753681 
L 75.012594 190.339756 
L 75.918383 189.411135 
L 76.824172 189.933159 
L 77.729961 178.368162 
L 78.63575 172.389571 
L 79.541538 168.374103 
L 80.447327 163.659267 
L 81.353116 170.339732 
L 82.258905 171.963946 
L 83.164694 173.072469 
L 84.070483 173.761141 
L 84.976272 174.090093 
L 85.882061 174.845928 
L 86.78785 175.183081 
L 87.693638 175.749224 
L 88.599427 177.082341 
L 89.505216 177.151368 
L 90.411005 176.495699 
L 91.316794 175.994435 
L 92.222583 176.622108 
L 95.845738 176.841447 
L 96.751527 177.042349 
L 97.657316 177.926456 
L 98.563105 178.432053 
L 100.374683 181.56151 
L 102.186261 185.080349 
L 103.09205 185.783706 
L 104.903627 186.282619 
L 105.809416 186.273509 
L 106.715205 186.867831 
L 107.620994 188.063916 
L 108.526783 188.191872 
L 109.432572 188.47196 
L 110.338361 188.096683 
L 111.24415 188.016094 
L 112.149939 187.446497 
L 113.055727 188.261664 
L 113.961516 189.918397 
L 114.867305 190.157598 
L 115.773094 189.771013 
L 116.678883 189.813861 
L 117.584672 189.470451 
L 119.39625 190.170835 
L 120.302039 190.152831 
L 121.207827 189.446097 
L 123.019405 189.64266 
L 123.925194 190.173063 
L 124.830983 190.076251 
L 125.736772 190.105517 
L 126.642561 189.574585 
L 127.54835 189.231274 
L 128.454139 190.463084 
L 129.359927 190.694255 
L 130.265716 191.365271 
L 131.171505 190.41382 
L 132.983083 189.961727 
L 133.888872 189.882819 
L 134.794661 188.977854 
L 135.70045 188.638563 
L 136.606239 189.050681 
L 137.512027 188.747276 
L 138.417816 189.088666 
L 139.323605 188.326677 
L 140.229394 188.675831 
L 141.135183 187.807262 
L 142.040972 187.696521 
L 142.946761 188.178363 
L 143.85255 187.46342 
L 145.664128 187.467295 
L 147.475705 188.215129 
L 148.381494 187.952091 
L 149.287283 188.619311 
L 150.193072 187.944465 
L 152.00465 188.613102 
L 152.910439 188.190558 
L 153.816228 188.515617 
L 154.722016 187.972341 
L 155.627805 187.564272 
L 156.533594 187.986864 
L 157.439383 187.749137 
L 158.345172 187.772786 
L 159.250961 187.489327 
L 160.15675 187.590242 
L 161.062539 187.991252 
L 161.968328 187.996574 
L 162.874116 188.348122 
L 165.591483 188.319286 
L 166.497272 187.919202 
L 167.403061 188.163959 
L 168.30885 187.88614 
L 169.214639 188.321099 
L 171.026216 188.468715 
L 171.932005 187.960073 
L 172.837794 189.020161 
L 174.649372 188.572401 
L 175.555161 189.282004 
L 176.46095 189.061518 
L 177.366739 190.397257 
L 178.272528 190.053502 
L 180.084105 190.726333 
L 180.989894 190.84772 
L 181.895683 190.216953 
L 182.801472 190.446119 
L 183.707261 190.151684 
L 184.61305 190.433281 
L 185.518839 190.849184 
L 186.424628 189.999606 
L 188.236205 190.330803 
L 189.141994 191.318864 
L 190.047783 191.336813 
L 190.953572 190.279743 
L 192.76515 190.421464 
L 193.670939 189.731578 
L 194.576728 190.28833 
L 195.482517 189.184513 
L 196.388305 190.283436 
L 197.294094 190.021808 
L 198.199883 188.851229 
L 199.105672 189.542497 
L 200.011461 189.918085 
L 201.823039 189.255104 
L 202.728828 188.175823 
L 203.634617 188.893284 
L 204.540405 188.425806 
L 205.446194 189.098499 
L 207.257772 189.69579 
L 208.163561 188.059536 
L 209.06935 189.963458 
L 209.975139 189.070277 
L 210.880928 189.407625 
L 211.786717 189.437256 
L 212.692506 190.799536 
L 213.598294 190.566348 
L 214.504083 191.23935 
L 215.409872 191.224446 
L 216.315661 190.992068 
L 217.22145 189.975515 
L 218.127239 190.959898 
L 219.033028 190.363037 
L 219.938817 190.875853 
L 220.844606 191.095531 
L 221.750394 191.058586 
L 222.656183 191.179769 
L 224.467761 189.674723 
L 225.37355 191.25294 
L 226.279339 191.719334 
L 228.090917 191.138154 
L 229.902494 191.223809 
L 230.808283 190.385415 
L 231.714072 190.538412 
L 232.619861 191.254212 
L 233.52565 191.04211 
L 234.431439 189.206811 
L 235.337228 189.724817 
L 236.243017 190.471379 
L 237.148806 190.714444 
L 238.054595 190.082445 
L 238.960383 190.070125 
L 239.866172 190.297297 
L 241.67775 189.102632 
L 243.489328 189.520937 
L 244.395117 190.242465 
L 245.300906 189.760601 
L 246.206695 190.519037 
L 248.018272 190.450722 
L 248.924061 190.315204 
L 249.82985 189.320949 
L 251.641428 189.286209 
L 252.547217 189.955075 
L 253.453006 189.881086 
L 254.358795 188.526151 
L 255.264583 189.229265 
L 256.170372 189.611831 
L 257.98195 188.96493 
L 258.887739 189.763464 
L 259.793528 189.203818 
L 260.699317 189.094905 
L 261.605106 189.428964 
L 262.510895 188.133105 
L 263.416683 189.894438 
L 264.322472 189.882162 
L 265.228261 189.251016 
L 266.13405 189.597816 
L 267.039839 188.696111 
L 267.945628 189.880814 
L 268.851417 190.850965 
L 269.757206 190.141694 
L 270.662995 189.745067 
L 271.568784 190.589503 
L 272.474572 189.679818 
L 273.380361 189.570836 
L 274.28615 189.778928 
L 275.191939 190.196867 
L 276.097728 190.298027 
L 277.003517 189.597641 
L 277.909306 189.855906 
L 278.815095 189.034501 
L 279.720884 189.972317 
L 280.626672 188.237378 
L 281.532461 189.182584 
L 282.43825 188.672488 
L 283.344039 187.865211 
L 284.249828 189.437861 
L 285.155617 188.993196 
L 286.061406 190.087286 
L 286.967195 189.152424 
L 287.872984 189.610957 
L 288.778772 188.992341 
L 290.59035 179.99982 
L 291.496139 180.443391 
L 292.401928 179.734081 
L 293.307717 177.244975 
L 294.213506 178.031909 
L 295.119295 180.531913 
L 296.025084 177.382964 
L 296.930872 175.841485 
L 298.74245 183.783692 
L 299.648239 180.86216 
L 300.554028 179.603838 
L 302.365606 177.900335 
L 303.271395 176.295998 
L 304.177184 178.963966 
L 305.082973 176.592632 
L 305.988761 175.892745 
L 306.89455 175.723871 
L 307.800339 174.360418 
L 308.706128 175.567269 
L 309.611917 173.75324 
L 310.517706 172.237871 
L 311.423495 171.02674 
L 312.329284 171.183373 
L 313.235073 171.611565 
L 314.140861 171.910568 
L 315.04665 172.69269 
L 315.952439 170.460856 
L 316.858228 170.9643 
L 317.764017 169.888153 
L 318.669806 171.253724 
L 319.575595 171.679926 
L 320.481384 172.982 
L 321.387173 173.429374 
L 323.19875 171.724528 
L 324.104539 173.512184 
L 325.010328 173.078631 
L 325.916117 171.936896 
L 327.727695 170.771354 
L 328.633484 171.559291 
L 329.539273 170.205745 
L 330.445061 170.363375 
L 331.35085 171.882362 
L 332.256639 172.208858 
L 333.162428 171.507473 
L 334.068217 172.338367 
L 334.974006 172.138032 
L 335.879795 170.949871 
L 336.785584 170.095078 
L 337.691373 168.604164 
L 338.597162 168.354937 
L 339.50295 169.31952 
L 340.408739 168.03949 
L 341.314528 167.047644 
L 342.220317 166.43537 
L 343.126106 165.688331 
L 344.031895 167.728439 
L 344.937684 168.881304 
L 345.843473 172.36002 
L 346.749262 172.90359 
L 347.65505 175.746113 
L 348.560839 174.737877 
L 349.466628 173.33751 
L 350.372417 174.691044 
L 352.183995 175.842574 
L 353.089784 176.850701 
L 353.995573 178.091034 
L 354.901362 177.681724 
L 355.80715 179.428677 
L 356.712939 178.171487 
L 357.618728 179.470573 
L 358.524517 177.855771 
L 359.430306 177.987925 
L 360.336095 177.777103 
L 361.241884 176.948572 
L 363.053462 177.862604 
L 363.95925 179.195556 
L 364.865039 177.129636 
L 365.770828 178.430339 
L 366.676617 178.900835 
L 367.582406 177.876366 
L 368.488195 177.079383 
L 369.393984 176.483716 
L 370.299773 175.234341 
L 370.299773 175.234341 
" style="fill:none;stroke:#d62728;stroke-linecap:square;stroke-width:1.5;"/>
   </g>
   <g id="patch_3">
    <path d="M 57.395 210.04 
L 57.395 10.8 
" style="fill:none;stroke:#000000;stroke-linecap:square;stroke-linejoin:miter;stroke-width:0.8;"/>
   </g>
   <g id="patch_4">
    <path d="M 385.2 210.04 
L 385.2 10.8 
" style="fill:none;stroke:#000000;stroke-linecap:square;stroke-linejoin:miter;stroke-width:0.8;"/>
   </g>
   <g id="patch_5">
    <path d="M 57.395 210.04 
L 385.2 210.04 
" style="fill:none;stroke:#000000;stroke-linecap:square;stroke-linejoin:miter;stroke-width:0.8;"/>
   </g>
   <g id="patch_6">
    <path d="M 57.395 10.8 
L 385.2 10.8 
" style="fill:none;stroke:#000000;stroke-linecap:square;stroke-linejoin:miter;stroke-width:0.8;"/>
   </g>
   <g id="legend_1">
    <g id="patch_7">
     <path d="M 63.226 66.371512 
L 134.157252 66.371512 
Q 135.823252 66.371512 135.823252 64.705512 
L 135.823252 16.631 
Q 135.823252 14.965 134.157252 14.965 
L 63.226 14.965 
Q 61.56 14.965 61.56 16.631 
L 61.56 64.705512 
Q 61.56 66.371512 63.226 66.371512 
z
" style="fill:#ffffff;opacity:0.8;stroke:#cccccc;stroke-linejoin:miter;"/>
    </g>
    <g id="line2d_33">
     <path d="M 64.892 21.710998 
L 81.552 21.710998 
" style="fill:none;stroke:#1f77b4;stroke-linecap:square;stroke-opacity:0.6;stroke-width:1.5;"/>
    </g>
    <g id="line2d_34"/>
    <g id="text_17">
     <!-- S36M0067 -->
     <g transform="translate(88.216 24.626498)scale(0.0833 -0.0833)">
      <defs>
       <path d="M 53.515625 70.515625 
L 53.515625 60.890625 
Q 47.90625 63.578125 42.921875 64.890625 
Q 37.9375 66.21875 33.296875 66.21875 
Q 25.25 66.21875 20.875 63.09375 
Q 16.5 59.96875 16.5 54.203125 
Q 16.5 49.359375 19.40625 46.890625 
Q 22.3125 44.4375 30.421875 42.921875 
L 36.375 41.703125 
Q 47.40625 39.59375 52.65625 34.296875 
Q 57.90625 29 57.90625 20.125 
Q 57.90625 9.515625 50.796875 4.046875 
Q 43.703125 -1.421875 29.984375 -1.421875 
Q 24.8125 -1.421875 18.96875 -0.25 
Q 13.140625 0.921875 6.890625 3.21875 
L 6.890625 13.375 
Q 12.890625 10.015625 18.65625 8.296875 
Q 24.421875 6.59375 29.984375 6.59375 
Q 38.421875 6.59375 43.015625 9.90625 
Q 47.609375 13.234375 47.609375 19.390625 
Q 47.609375 24.75 44.3125 27.78125 
Q 41.015625 30.8125 33.5 32.328125 
L 27.484375 33.5 
Q 16.453125 35.6875 11.515625 40.375 
Q 6.59375 45.0625 6.59375 53.421875 
Q 6.59375 63.09375 13.40625 68.65625 
Q 20.21875 74.21875 32.171875 74.21875 
Q 37.3125 74.21875 42.625 73.28125 
Q 47.953125 72.359375 53.515625 70.515625 
z
" id="DejaVuSans-83"/>
       <path d="M 33.015625 40.375 
Q 26.375 40.375 22.484375 35.828125 
Q 18.609375 31.296875 18.609375 23.390625 
Q 18.609375 15.53125 22.484375 10.953125 
Q 26.375 6.390625 33.015625 6.390625 
Q 39.65625 6.390625 43.53125 10.953125 
Q 47.40625 15.53125 47.40625 23.390625 
Q 47.40625 31.296875 43.53125 35.828125 
Q 39.65625 40.375 33.015625 40.375 
z
M 52.59375 71.296875 
L 52.59375 62.3125 
Q 48.875 64.0625 45.09375 64.984375 
Q 41.3125 65.921875 37.59375 65.921875 
Q 27.828125 65.921875 22.671875 59.328125 
Q 17.53125 52.734375 16.796875 39.40625 
Q 19.671875 43.65625 24.015625 45.921875 
Q 28.375 48.1875 33.59375 48.1875 
Q 44.578125 48.1875 50.953125 41.515625 
Q 57.328125 34.859375 57.328125 23.390625 
Q 57.328125 12.15625 50.6875 5.359375 
Q 44.046875 -1.421875 33.015625 -1.421875 
Q 20.359375 -1.421875 13.671875 8.265625 
Q 6.984375 17.96875 6.984375 36.375 
Q 6.984375 53.65625 15.1875 63.9375 
Q 23.390625 74.21875 37.203125 74.21875 
Q 40.921875 74.21875 44.703125 73.484375 
Q 48.484375 72.75 52.59375 71.296875 
z
" id="DejaVuSans-54"/>
       <path d="M 9.8125 72.90625 
L 24.515625 72.90625 
L 43.109375 23.296875 
L 61.8125 72.90625 
L 76.515625 72.90625 
L 76.515625 0 
L 66.890625 0 
L 66.890625 64.015625 
L 48.09375 14.015625 
L 38.1875 14.015625 
L 19.390625 64.015625 
L 19.390625 0 
L 9.8125 0 
z
" id="DejaVuSans-77"/>
      </defs>
      <use xlink:href="#DejaVuSans-83"/>
      <use x="63.476562" xlink:href="#DejaVuSans-51"/>
      <use x="127.099609" xlink:href="#DejaVuSans-54"/>
      <use x="190.722656" xlink:href="#DejaVuSans-77"/>
      <use x="277.001953" xlink:href="#DejaVuSans-48"/>
      <use x="340.625" xlink:href="#DejaVuSans-48"/>
      <use x="404.248047" xlink:href="#DejaVuSans-54"/>
      <use x="467.871094" xlink:href="#DejaVuSans-55"/>
     </g>
    </g>
    <g id="line2d_35">
     <path d="M 64.892 33.937877 
L 81.552 33.937877 
" style="fill:none;stroke:#ff7f0e;stroke-linecap:square;stroke-opacity:0.6;stroke-width:1.5;"/>
    </g>
    <g id="line2d_36"/>
    <g id="text_18">
     <!-- S36M0069 -->
     <g transform="translate(88.216 36.853377)scale(0.0833 -0.0833)">
      <defs>
       <path d="M 10.984375 1.515625 
L 10.984375 10.5 
Q 14.703125 8.734375 18.5 7.8125 
Q 22.3125 6.890625 25.984375 6.890625 
Q 35.75 6.890625 40.890625 13.453125 
Q 46.046875 20.015625 46.78125 33.40625 
Q 43.953125 29.203125 39.59375 26.953125 
Q 35.25 24.703125 29.984375 24.703125 
Q 19.046875 24.703125 12.671875 31.3125 
Q 6.296875 37.9375 6.296875 49.421875 
Q 6.296875 60.640625 12.9375 67.421875 
Q 19.578125 74.21875 30.609375 74.21875 
Q 43.265625 74.21875 49.921875 64.515625 
Q 56.59375 54.828125 56.59375 36.375 
Q 56.59375 19.140625 48.40625 8.859375 
Q 40.234375 -1.421875 26.421875 -1.421875 
Q 22.703125 -1.421875 18.890625 -0.6875 
Q 15.09375 0.046875 10.984375 1.515625 
z
M 30.609375 32.421875 
Q 37.25 32.421875 41.125 36.953125 
Q 45.015625 41.5 45.015625 49.421875 
Q 45.015625 57.28125 41.125 61.84375 
Q 37.25 66.40625 30.609375 66.40625 
Q 23.96875 66.40625 20.09375 61.84375 
Q 16.21875 57.28125 16.21875 49.421875 
Q 16.21875 41.5 20.09375 36.953125 
Q 23.96875 32.421875 30.609375 32.421875 
z
" id="DejaVuSans-57"/>
      </defs>
      <use xlink:href="#DejaVuSans-83"/>
      <use x="63.476562" xlink:href="#DejaVuSans-51"/>
      <use x="127.099609" xlink:href="#DejaVuSans-54"/>
      <use x="190.722656" xlink:href="#DejaVuSans-77"/>
      <use x="277.001953" xlink:href="#DejaVuSans-48"/>
      <use x="340.625" xlink:href="#DejaVuSans-48"/>
      <use x="404.248047" xlink:href="#DejaVuSans-54"/>
      <use x="467.871094" xlink:href="#DejaVuSans-57"/>
     </g>
    </g>
    <g id="line2d_37">
     <path d="M 64.892 46.164755 
L 81.552 46.164755 
" style="fill:none;stroke:#2ca02c;stroke-linecap:square;stroke-opacity:0.6;stroke-width:1.5;"/>
    </g>
    <g id="line2d_38"/>
    <g id="text_19">
     <!-- S36M0072 -->
     <g transform="translate(88.216 49.080255)scale(0.0833 -0.0833)">
      <use xlink:href="#DejaVuSans-83"/>
      <use x="63.476562" xlink:href="#DejaVuSans-51"/>
      <use x="127.099609" xlink:href="#DejaVuSans-54"/>
      <use x="190.722656" xlink:href="#DejaVuSans-77"/>
      <use x="277.001953" xlink:href="#DejaVuSans-48"/>
      <use x="340.625" xlink:href="#DejaVuSans-48"/>
      <use x="404.248047" xlink:href="#DejaVuSans-55"/>
      <use x="467.871094" xlink:href="#DejaVuSans-50"/>
     </g>
    </g>
    <g id="line2d_39">
     <path d="M 64.892 58.391633 
L 81.552 58.391633 
" style="fill:none;stroke:#d62728;stroke-linecap:square;stroke-width:1.5;"/>
    </g>
    <g id="line2d_40"/>
    <g id="text_20">
     <!-- Mean -->
     <g transform="translate(88.216 61.307133)scale(0.0833 -0.0833)">
      <use xlink:href="#DejaVuSans-77"/>
      <use x="86.279297" xlink:href="#DejaVuSans-101"/>
      <use x="147.802734" xlink:href="#DejaVuSans-97"/>
      <use x="209.082031" xlink:href="#DejaVuSans-110"/>
     </g>
    </g>
   </g>
  </g>
 </g>
 <defs>
  <clipPath id="pdf49eaf6f2">
   <rect height="199.24" width="327.805" x="57.395" y="10.8"/>
  </clipPath>
 </defs>
</svg>
